<svg xmlns="http://www.w3.org/2000/svg" xmlns:xlink="http://www.w3.org/1999/xlink" width="224.1" height="68"><path d="M2.8 58.6L21 65.2v-3.9L6.7 56.1v-48l9 3.2V7.5L2.8 2.8zM36.4 2.8v3.9l14.4 5.2v48l-10.7-3.8v3.8l14.5 5.3V9.5z"/><defs><path id="a" d="M0 0h224.1v68H0z"/></defs><clipPath id="b"><use xlink:href="#a" overflow="visible"/></clipPath><path clip-path="url(#b)" d="M207.6 50.8h2.3l2.1-7.2 2.1 7.2h.7l4-7.2.2 7.2h2.3l-.5-11.6h-1.6l-4.1 7.4-2.2-7.4h-1.6l-3.7 11.6zm-10.8-11.7l-.7 6.1c-.1.4-.2 1.5-.2 2 0 .9.2 1.9 1 2.7 1 1 2.4 1.2 3.4 1.2s2.5-.1 3.6-1.2c1-1 1.2-2.5 1.4-3.8l.8-6.8h-2.3l-.8 6.6c-.1 1.1-.2 2.1-1.1 2.8-.4.3-1 .5-1.6.5-.6 0-1.2-.2-1.6-.5-.3-.3-.6-.9-.6-1.6 0-.2.1-.9.1-1.3l.8-6.4h-2.2zm-8.9 1.9h.7c.7 0 1.2.2 1.5.4.4.3.5.8.5 1.1 0 .7-.3 1.1-.5 1.3-.4.4-1.2.6-1.8.6h-.8l.4-3.4zm-2-1.9l-1.4 11.6h2.3l.6-4.7h.3l2.5 4.7h2.7l-3-4.9c.8-.1 1.6-.5 2.1-1 .6-.5 1-1.4 1-2.5s-.4-1.8-.8-2.2c-.9-.9-2-1-2.9-1h-3.4zm-2.5 2l.2-1.9h-7.5l-.2 1.9h2.6l-1.2 9.7h2.3l1.2-9.7h2.6zm-19.7 9.7l1-7.8 6.1 7.8h1.6l1.4-11.6h-2.3l-1 7.8-6.1-7.8h-1.6l-1.4 11.6h2.3zm-3.9-11.7h-6.4L152 50.8h6.5l.2-1.9h-4.2l.4-3.2h4l.2-1.9h-4l.3-2.6h4.2l.2-2.1zm-9.8 1.1c-1.1-1.2-2.4-1.4-3.1-1.4-1 0-2.2.2-3.2 1.1-.7.7-1 1.6-1 2.5 0 .6.1 1.3.7 1.9.3.3.7.5 1.4.9l.7.3c.5.2.8.3 1.2.6.4.3.5.6.5 1.1 0 .6-.2.9-.4 1.2-.5.5-1.1.6-1.5.6-.5 0-1-.1-1.5-.5-.3-.3-.6-.7-.8-1.1l-1.7 1.4c.4.6.9 1.1 1.5 1.5.7.5 1.5.7 2.4.7 1 0 2.2-.2 3.2-1.1.7-.7 1.2-1.9 1.2-3.2 0-.8-.2-1.3-.7-1.9-.5-.5-1-.8-1.4-1l-.8-.3c-.6-.2-.9-.4-1.1-.5-.3-.2-.5-.5-.5-.9s.2-.7.5-1c.2-.2.6-.4 1.2-.4 1 0 1.6.5 1.9 1l1.3-1.5zm-15.6.8h.7c.8 0 1.2.2 1.5.4.4.3.5.8.5 1.1 0 .7-.3 1.1-.5 1.3-.4.4-1.2.6-1.8.6h-.8l.4-3.4zm-2.1-1.9l-1.4 11.6h2.3l.6-4.7h.3l2.5 4.7h2.7l-3-4.9c.8-.1 1.6-.5 2.1-1 .6-.5 1-1.4 1-2.5s-.4-1.8-.8-2.2c-.9-.9-2-1-2.9-1h-3.4zm-12.8 0l-.7 6.1c-.1.4-.2 1.5-.2 2 0 .9.2 1.9 1 2.7 1 1 2.4 1.2 3.4 1.2s2.5-.1 3.6-1.2c1-1 1.2-2.5 1.4-3.8l.8-6.8h-2.3l-.8 6.6c-.1 1.1-.2 2.1-1.1 2.8-.4.3-1 .5-1.6.5-.6 0-1.2-.2-1.6-.5-.3-.3-.6-.9-.6-1.6 0-.2.1-.9.1-1.3l.8-6.4h-2.2zm-2.5 2l.2-1.9h-7.5l-.2 1.9h2.6l-1.2 9.7h2.3l1.2-9.7h2.6zm-14.1-2l-1.4 11.6h5.9l.2-1.9H104l1.2-9.7h-2.3zm-12.8 0l-.7 6.1c-.1.4-.2 1.5-.2 2 0 .9.2 1.9 1 2.7 1 1 2.4 1.2 3.4 1.2s2.5-.1 3.6-1.2c1-1 1.2-2.5 1.4-3.8l.8-6.8h-2.3l-.8 6.6c-.1 1.1-.2 2.1-1.1 2.8-.4.3-1 .5-1.6.5-.6 0-1.2-.2-1.6-.5-.3-.3-.6-.9-.6-1.6 0-.2.1-.9.1-1.3l.8-6.4h-2.2zm-9 0h-2.3l-1.4 11.6h2.3l.6-4.6.4-.4 3.3 5h2.7l-4.4-6.2 5.6-5.4h-2.6l-4.8 4.6.6-4.6zM157.1 18.2h-2.3l-1.4 11.6h2.3l.6-4.6.4-.4 3.3 5h2.7l-4.4-6.2 5.6-5.4h-2.6l-4.8 4.6.6-4.6zm-5.7 1.1c-1.1-1.2-2.4-1.4-3.1-1.4-1 0-2.2.2-3.2 1.1-.7.7-1 1.6-1 2.5 0 .6.1 1.3.7 1.9.3.3.7.5 1.4.9l.7.3c.5.2.8.3 1.2.6.4.3.5.6.5 1.1 0 .6-.2.9-.4 1.2-.5.5-1.1.6-1.5.6-.5 0-1-.1-1.5-.5-.3-.3-.6-.7-.8-1.1l-1.7 1.4c.4.6.9 1.1 1.5 1.5.7.5 1.5.7 2.4.7 1 0 2.2-.2 3.2-1.1.7-.7 1.2-1.9 1.2-3.2 0-.8-.2-1.3-.7-1.9-.5-.5-1-.8-1.4-1l-.8-.3c-.6-.2-.9-.4-1.1-.5-.3-.2-.5-.5-.5-.9s.2-.7.5-1c.2-.2.6-.4 1.2-.4 1 0 1.6.5 1.9 1l1.3-1.5zm-15.6.8h.7c.7 0 1.2.2 1.5.4.4.3.5.8.5 1.1 0 .7-.3 1.1-.5 1.3-.4.4-1.2.6-1.8.6h-.8l.4-3.4zm-2-1.9l-1.4 11.6h2.3l.6-4.7h.3l2.5 4.7h2.7l-3-4.9c.8-.1 1.6-.5 2.1-1 .6-.5 1-1.4 1-2.5s-.4-1.8-.8-2.2c-.9-.9-2-1-2.9-1h-3.4zm-10.3 9.9c-1.1 0-2-.4-2.6-1.1-.5-.5-.9-1.3-.9-2.5 0-1.3.5-2.5 1.3-3.3.7-.6 1.6-1.1 2.9-1.1 1.3 0 2.1.5 2.6 1 .5.6.9 1.4.9 2.5 0 1.3-.5 2.6-1.4 3.4-.6.6-1.6 1.1-2.8 1.1m1.1-10.1c-1.9 0-3.7.7-4.9 1.8-1.2 1.1-2 2.9-2 4.8 0 1.5.6 2.9 1.5 3.8.7.7 2 1.6 4.3 1.6 2.4 0 3.9-.9 4.8-1.9 1.2-1.2 1.9-3 1.9-4.9 0-1.7-.7-3-1.5-3.9-1-.7-2.5-1.3-4.1-1.3m-19.3 11.9l1-7.8 6.1 7.8h1.6l1.4-11.6h-2.3l-1 7.8-6.1-7.8h-1.6L103 29.9h2.3zm-10.8 0h2.3l.6-5.3 4.9-6.3h-2.8l-3 4-2-4h-2.6l3.2 6.3-.6 5.3zm-14.8 0l1-7.8 6.1 7.8h1.6l1.4-11.6h-2.3l-1 7.8-6.1-7.8h-1.6l-1.4 11.6h2.3z"/></svg>