<svg xmlns="http://www.w3.org/2000/svg" viewBox="0 0 94.488136 94.488136" height="94.488" width="94.488"><defs><clipPath id="a"><path d="M1.417 1.417h68.03V69.45H1.418z"/></clipPath></defs><g clip-path="url(#a)" transform="matrix(1.33333 0 0 -1.33333 0 94.488)"><path d="M1.923 35.43c0-9.253 3.75-17.628 9.814-23.693 6.065-6.065 14.44-9.816 23.694-9.816 9.256.002 17.633 3.752 23.698 9.817 6.064 6.065 9.814 14.44 9.814 23.694s-3.75 17.63-9.814 23.697c-6.066 6.064-14.443 9.816-23.698 9.816-10.41 0-19.71-4.747-25.856-12.196-4.78-5.795-7.652-13.22-7.652-21.316m-.505 0c0 8.218 2.915 15.76 7.767 21.638 6.24 7.56 15.682 12.38 26.247 12.38 18.79 0 34.018-15.232 34.018-34.017 0-18.783-15.228-34.015-34.017-34.015-18.784 0-34.013 15.232-34.013 34.016" fill="#040606"/><path d="M8.89 21.632c.007.444.37.8.815.794.445-.005.8-.368.796-.814-.004-.445-.37-.8-.813-.796-.445.006-.8.37-.796.816M60.087 21.152c.005.444.37.8.814.794.446-.005.802-.368.796-.814-.005-.444-.37-.8-.813-.795-.445.006-.802.37-.796.815" fill="#040606"/><path d="M58.234 25.798c-1.247-2.938-3.024-5.576-5.29-7.845-2.268-2.264-4.906-4.044-7.845-5.29-1.158-.49-2.34-.885-3.547-1.19l-.028.492c0 .296-.335.444-.518.444l-1.062-.018s-.326.08-.366.093c-.04.01-.03.054-.024.062.075.09.08.22.006.315l-.81 1.056.026.75c2.38.06 4.133.963 4.95 1.56.805.594.856 1.503.858 1.773 0 .04 0 .067-.002.078l-.024 2.11c.007.003.015.004.023.008l2.255 1.267c.087.05.137.143.13.243l-1.482 16.502c.064.022.274.094.51.183.288.11.592.23.772.347.162.113.84.685 1.005.855.144.153.197.348.196.522-.003.272-.108.513-.214.704-.093.16-.22.294-.36.407.31.692.47 1.46.468 2.254 0 1.383-.33 2.472-.65 3.503-.32 1.032-.627 2.005-.627 3.203 0 2.225.023 3.545.023 3.548 0 .068-.025.133-.072.182-.047.048-.113.075-.18.075-.747.004-1.21-.243-1.465-.518-.12-.128-.193-.256-.237-.36h-4.563c-.045.114-.12.26-.243.41-.246.307-.71.6-1.433.596-.068 0-.132-.026-.18-.075-.048-.047-.074-.112-.074-.18 0-.004.015-1.678.014-4.025 0-.184-.008-.367-.023-.547-.093.148-.194.295-.3.435-.284.362-.58.68-.947.802-.33.1-.82.253-1.393.428-.21.066-.298.163-.357.27-.035.062-.054.132-.064.197l.28-.006h.013c.252.01.467.043.65.118.182.073.348.21.41.41.03.104.04.203.04.29 0 .1-.012.187-.025.25l.12.21c.04.07.045.15.016.22.055.052.084.127.08.203l-.018.26.037.006c.077.015.158.033.24.07.042.02.087.044.134.09.045.045.095.13.094.228 0 .07-.015.23-.036.485-.055.623-.155 1.68-.185 2.007.103.14.28.424.29.795 0 .24-.07.52-.288.74-.213.215-.542.34-.984.346-.195.052-1.216.323-1.512.368-.22.03-.513.083-.86.083-.59.002-1.336-.158-2.146-.784-1.048-.826-1.133-2.303-1.14-2.96 0-.127.004-.225.007-.283-.036-.105-.09-.323-.09-.67 0-.19.017-.42.06-.69.103-.657.508-1.053.867-1.257.18-.104.353-.167.48-.204v-.48c-.198-.1-1.46-.656-2.674-1.492-.025-.023-.125-.08-.22-.187 0-.002-.004-.003-.007-.005L15.09 35.792c-.05-.048-.076-.115-.074-.184.002-.07.032-.134.083-.18 0-.002.938-.855 1.98-1.808l.783-.717-2.5-3.43c-.21-.268-.346-.656-.345-1.174.003-1.047.52-2.636 2.11-5.11 1.81-2.816 3.2-4.115 3.71-4.542l-.66-.758c-.02-.023-.233-.248-.45-.536-.115-.15-.232-.318-.323-.488-.022-.042-.043-.083-.062-.125-.447.388-.882.793-1.304 1.214-2.267 2.268-4.045 4.906-5.286 7.844-1.29 3.04-1.943 6.272-1.943 9.61 0 3.328.654 6.558 1.944 9.6 1.24 2.944 3.02 5.58 5.285 7.85 2.27 2.263 4.904 4.043 7.845 5.287 3.044 1.285 6.273 1.935 9.61 1.936 3.33 0 6.56-.65 9.604-1.935 2.938-1.244 5.576-3.024 7.843-5.288 2.268-2.268 4.044-4.905 5.29-7.848 1.285-3.044 1.937-6.274 1.937-9.603 0-3.337-.652-6.57-1.936-9.61m-22.85-15.07c1.446.25 2.724.723 3.658 1.397l.795-.23c.028-.007.06-.01.09-.01 0 0 .738.04.8.046.21.013.304-.112.306-.156.002-.044.007-.1.007-.1s.01-.13-.078-.216c-.08-.078-.65-.236-.857-.302-1.51-.285-3.05-.43-4.61-.43l-.11.002M20.848 17.44l.305-.003c2.01 0 7.358.462 11.256 5.057 3.21 3.808 4.014 11.076 4.14 12.348l1.005.072c-.036-.52-.125-1.753-.282-3.42-.21-2.236-.538-5.243-1.015-8.336-.48-3.094-1.054-6.16-1.51-8.45-.337-1.697-.608-2.965-.727-3.512-.01-.05-.07-.14-.19-.14-.278 0-.558-.026-.842-.025-.924 0-1.876.088-2.816.27-.493.108-.982.23-1.467.37-3.486 1.098-5.51 2.65-6.664 3.908-.578.632-.938 1.192-1.152 1.592-.035.064-.065.123-.093.178-.03.06.004.095.054.093m.12.59l6.883 7.9c.025.03.043.063.053.1 0 0 2.017 7.444 2.03 7.496.015.053.067.067.067.067s3.577.98 3.714 1.02c.138.038.336.055.336.055l1.986.14c-.025-.233-.066-.605-.13-1.084-.34-2.516-1.368-7.946-3.885-10.903-3.746-4.425-8.93-4.878-10.87-4.877h-.124c-.072 0-.123.013-.06.087m20.025 33.377v-1.975c-.17-.094-.3-.176-.372-.22-.23-.144-.537-.42-.596-.472.087.673.15 1.523.16 2.667zm1.15 0v-1.51c-.223-.047-.442-.124-.645-.212v1.722zm1.11 0v-1.554c-.183.068-.387.09-.606.093v1.46zm.965-3.254c-.03.09-.086.225-.26.284-.044.013-.092.025-.138.035l-.003.555c.002.12-.02.238-.06.344v2.037h.794c.013-2.086.195-3.325.377-4.223.193-.936.37-1.474.37-2.222 0-.804-.31-1.57-.82-2.13-.21-.232-.452-.426-.72-.577v4.92l.053.007.063.006h.02c.096 0 .163.047.196.08.108.12.106.19.134.288.02.094.03.2.03.307 0 .097-.007.192-.036.29m-1.57-6.23v5.08c.232.057.435.11.51.128h.094v-5.094c-.193-.06-.395-.1-.605-.113m-1.15.13v4.736l.124.003c.104.002.21.027.37.058l.15.034v-4.95c-.22.02-.436.06-.644.118m-2.114 2.284c.59.725 1.243 1.615 1.61 2.12v-4.22c-.254.117-.49.264-.696.44-.476.408-.812.96-.914 1.66m.1-9.258l.184.038c.117.024.2.128.2.247l.01 3.282c.675-.273 1.46-.43 2.354-.43h.008c.574 0 1.108.064 1.6.178l.236-20.328v-.013s.002-.014.002-.05c.002-.21-.054-.937-.65-1.366-.74-.54-2.395-1.4-4.634-1.46zm-8.458 5.85c-.4.55-1.562 2.178-1.955 5.147.028-.03.055-.062.083-.09.42-.442.898-.735 1.183-.88 2.533-1.36 6.603-2.962 6.607-2.964h.008c.036-.17.083-.337.137-.504l-3.818-.233s-.448-.02-.772-.112c-.39-.11-1.283-.363-1.343-.382-.076-.025-.12.003-.132.02m-1.555-6.385l1.668 5.763c.023.076.1.098.1.098s1.203.337 1.395.4c.192.06.507.085.507.085l4.14.252c.215-.484.51-.943.893-1.346.336-.354.737-.663 1.2-.914l-.008-3.207c0-.06-.03-.127-.162-.14-.133-.01-4.163-.29-5.167-.362-.143-.01-.314-.035-.467-.077-.152-.043-3.66-1.004-3.66-1.004s-.12-.02-.182.028c-.06.048-.09.073-.2.158-.106.087-.055.265-.055.265m8.823-20.86s.656-.85.68-.89c.027-.038.006-.082-.012-.096-.993-.81-2.602-1.378-4.443-1.58.29 1.336 1.41 6.603 2.238 11.964.853 5.53 1.232 10.778 1.306 11.87 0 0 .664.043.78.054.116.012.13-.057.128-.128l-.728-21.03c-.002-.06.016-.117.052-.164M46.44 21.9s.01-.074-.05-.108l-1.837-1.032-.206 17.772c.2.065.395.142.58.226zM45.7 39.46c-.137.193-.18.323-.18.408 0 .03.004.056.013.087h.003c.02.048.17.21.306.325.135.12.258.212.258.213.072.043.117.158.11.225-.003.1-.03.137-.045.176-.017.036-.035.067-.05.095-.016.037-.027.122.05.197.085.087.207.052.232.04.093-.037.248-.108.397-.196.22-.127.442-.31.524-.46.082-.143.15-.33.147-.456 0-.084-.035-.148-.076-.194-.082-.093-.825-.717-.9-.764-.08-.057-.4-.192-.67-.292-.077-.03-.153-.057-.222-.08-.092-.04-.107.02-.107.02s-.02.056.018.092c.043.034.086.074.126.118.045.06.11.114.12.273 0 .053-.016.12-.054.172M38.672 53.46c0 .11.04.13.058.127.386-.062.595-.23.73-.388.083-.1.133-.202.162-.277.015-.037.024-.068.03-.087l.004-.02c.02-.122.127-.21.25-.21h4.935c.126 0 .232.09.25.214.006.025.045.184.203.336.133.124.35.26.744.308.054.012.063-.04.063-.087 0-.524-.02-1.613-.02-3.194 0-1.287.333-2.325.652-3.353.318-1.03.626-2.05.626-3.354 0-.698-.132-1.364-.39-1.968-.227.126-.417.203-.522.233-.036.01-.072.014-.105.014-.2-.01-.328-.098-.455-.187-.125-.1-.22-.17-.292-.327-.02-.052-.028-.106-.028-.155.003-.137.05-.232.087-.306-.053-.043-.114-.094-.177-.15-.083-.075-.168-.155-.243-.24-.074-.086-.14-.163-.183-.288-.025-.077-.038-.157-.038-.238 0-.155.044-.298.115-.44-.765-.444-1.725-.706-2.885-.707-1.688.002-2.897.58-3.7 1.424-.596.628-.967 1.41-1.117 2.22.25.21.687.596 1.24 1.153.096.095.2.207.308.33.178-.635.534-1.163 1-1.556.647-.55 1.496-.847 2.376-.874.014-.003.03-.004.047-.004h.08c1.9.004 3.325 1.687 3.33 3.55-.002.837-.198 1.42-.38 2.323-.183.905-.368 2.16-.368 4.375 0 .067-.028.13-.075.18-.047.046-.112.073-.18.073h-4.87c-.068 0-.133-.027-.18-.074-.047-.05-.074-.113-.074-.18 0-1.584-.1-2.6-.232-3.36l-1.145-.87c.09.33.173.663.237 1.004l.01.044c.08.44.13.892.133 1.36 0 1.663-.007 2.99-.01 3.624m-7.927-3.857c.387 0 .732-.11.933-.315.328-.33.683-.776.952-1.138.27-.364.452-.64.453-.64.018-.028.04-.052.07-.07l3.03-2.04c.09-.063.208-.06.295.007l3.86 2.932.016.014s.085.077.197.17c.11.093.252.205.34.26.2.132 1.052.636 1.593.65.048.004.094.005.138.005.26.003.454-.043.55-.106.09-.066.132-.12.14-.307 0-.31.005-.765.005-.765 0-.123.088-.204.21-.225.094 0 .22-.028.22-.174 0-.167-.113-.192-.167-.2-.092-.01-.18-.02-.214-.026h-.24l-.064-.008s-.325-.085-.675-.17c-.174-.04-.355-.083-.5-.113-.074-.015-.14-.03-.188-.037l-.06-.01h-.018c-.224-.002-.57-.04-.575-.04-.072-.01-.138-.047-.18-.106 0 0-.427-.608-.963-1.323-.535-.714-1.184-1.54-1.598-1.956-.432-.43-.79-.758-1.04-.975-.076-.068-.143-.125-.198-.17-.03-.025-.098-.056-.17-.026-.37.152-1.16.47-2.112.876-1.33.568-2.97 1.305-4.217 1.972-.248.127-.687.398-1.05.78-.04.042-.078.085-.115.128l-.035.043c-.028.034-.055.07-.08.104l-.06.082-.048.072-.052.085-.02.037c-.033.06-.064.124-.09.19-.005.008-.01.016-.013.025-.015.037-.03.075-.043.113v.003c-.023.068-.04.137-.056.208l-.016.092-.01.07c-.006.06-.01.117-.01.178 0 .04.002.08.004.12l.01.103c.002.005.002.01.003.016.013.08.03.164.053.25.014.05.03.103.05.157 0 .003.002.005.003.008.018.048.038.098.06.148l.01.022c.02.046.043.093.068.142l.016.03c.03.058.065.116.102.175.23.385.89.676 1.494.67m2.476-.484c.045-.034.1-.052.156-.052h.017l2.944.2c.095.006.18.067.216.157.037.09.02.19-.045.263l-.53.594c.31-.094.574-.177.78-.24.157-.04.446-.294.69-.624.233-.302.445-.66.585-.95-.105-.523-.254-1.038-.413-1.556l-1.305-.99-2.84 1.912c-.143.213-.804 1.175-1.44 1.813-.337.334-.814.463-1.29.464-.09 0-.177-.005-.265-.014l.37.2c.185.097.363.19.52.27zm2.932 4.2s.004-.08-.063-.116c-.066-.038-.112-.104-.124-.18-.013-.076.02-.148.06-.21.01-.015.013-.047-.004-.078l-.05-.088c-.035-.06-.043-.135-.02-.203l.002-.01c.008-.03.027-.113.026-.2 0-.05-.04-.19-.138-.233-.094-.04-.254-.073-.463-.08l-.535.01c-.123.004-.23-.084-.253-.206-.002-.012-.014-.08-.014-.184 0-.14.02-.346.133-.557.044-.082.103-.162.177-.236 0 0 0-.003.002-.004l.9-1.01-2.333-.157-1.588 1.24.123.063c.086.042.14.13.14.226v.733l1.02 1.022c.063.063.088.155.066.24-.023.087-.09.156-.174.18v.002c-.046.032-.352.13-.362.753.004.103.03.116.05.14.01.007.018.013.026.016l.663.006c.078 0 .15.037.2.1 0 0 1.06 1.402 1.133 1.493.073.092.184.1.184.1l1.438.156s.073.005.085-.084l.043-.47c.003-.072-.045-.1-.073-.1-.183-.006-.373-.01-.576-.02-.212-.007-.444-.105-.597-.233-.113-.096-.117-.273-.01-.375.057-.056.183-.075.32-.117.176-.05.37-.118.467-.087.123.04.17.15.178.27.01.133.09.224.225.224.057 0 .09-.046.097-.095.025-.252.07-.57.087-.75l.02-.242c.002-.09-.077-.097-.117-.1-.084-.012-.15-.014-.15-.015-.07-.003-.132-.033-.177-.084-.046-.05-.07-.116-.064-.185zm-3.868 1.933c-.045.13-.183.2-.312.16.11.097.22.193.325.282l1.085.142c.14.02.236.146.218.285-.018.138-.145.236-.284.218l-.166-.022c.34.2.687.36.974.48.193.08.36.14.476.18.116.04.18.06.18.06.134.04.21.18.17.315-.04.133-.18.21-.314.17-.008-.004-.43-.128-.977-.375.08.114.052.27-.062.352-.113.08-.27.052-.35-.062l-.582-.826-.155-.104c-.075-.053-.157-.115-.244-.184l.058.116c.063.124.014.277-.11.34-.124.064-.277.015-.34-.11l-.637-1.238-.43-.405c.02.662.198 1.826.94 2.38.73.56 1.335.678 1.838.68.298 0 .558-.045.79-.078.11-.015.498-.11.836-.195.342-.087.648-.17.648-.17l.066-.007c.374-.002.558-.098.658-.197.1-.1.14-.234.14-.383 0-.128-.054-.27-.116-.38-.023-.04-.044-.07-.063-.098l-1.89-.208c-.068-.008-.13-.043-.173-.098l-1.19-1.567-.582-.004-.052-.007c-.024-.006-.13-.03-.248-.128-.12-.094-.237-.284-.234-.528 0-.472.16-.796.34-.984l.056-.056-.775-.776c-.122.032-.317.1-.5.228-.236.166-.45.41-.52.835-.04.246-.053.448-.053.61 0 .17.015.294.03.38l.01.007s.114.112.292.282l1.07.366c.13.045.2.19.156.32m-13.278-26.5c.142-.026.275-.04.4-.04.445 0 .77.17.968.343.2.173.28.342.292.363v.004c.003.003.004.007.007.014l.014.033 7.698 18.003c.016-.12.05-.353.084-.465.12-2.023.584-3.44 1.072-4.527.282-.628.57-1.11.794-1.448.113-.17.21-.305.282-.402l.063-.086-1.795-6.202c-.028-.098.006-.205.085-.27l.428-.338s.055-.05.03-.143l-1.997-7.37-6.262-7.19c-.462.384-1.82 1.642-3.617 4.433-1.566 2.43-2.033 3.963-2.03 4.836 0 .435.11.698.238.862l.006.006.006.01.023.027c.144.16.32.214.452.214.017 0 .033 0 .05-.004.695-.08 1.68-.458 2.71-.663m-3.373 6.872l12.52 12.66-7.506-17.622c-.11.294-.31.616-.638.934-.702.68-3.595 3.316-4.376 4.028m4.024-4.39c.515-.506.608-.944.61-1.24 0-.12-.017-.216-.033-.28l-.02-.07-.004-.008c-.022-.035-.224-.418-.803-.418-.09 0-.19.008-.302.03-.98.19-1.947.57-2.747.67-.013 0-.028 0-.043.002l1.923 2.636c.627-.578 1.17-1.084 1.42-1.324m.21-14.934c-.04.03-.103.138-.07.22.013.033.032.07.052.106.11.203.286.44.433.617.263-.564.893-1.655 2.227-2.832-.92.57-1.802 1.2-2.643 1.89M58.7 45.206c-1.272 3.002-3.086 5.695-5.4 8.01-2.312 2.308-5.005 4.125-8.005 5.396-3.105 1.31-6.405 1.974-9.8 1.974-3.403 0-6.7-.664-9.808-1.974-3-1.27-5.69-3.09-8.005-5.397-2.312-2.314-4.127-5.007-5.394-8.01-1.316-3.103-1.982-6.403-1.982-9.798 0-3.403.666-6.705 1.982-9.806 1.267-2.996 3.082-5.692 5.393-8.004 2.317-2.31 5.007-4.13 8.007-5.397.94-.4 1.898-.737 2.87-1.014l.026-.01c.488-.152.984-.273 1.482-.37 1.77-.39 3.584-.586 5.43-.586 1.122 0 2.235.074 3.334.22h.007c.64.036 1.092.133 1.39.224 1.733.33 3.43.84 5.068 1.535 3 1.267 5.693 3.085 8.005 5.396l-.18.18.18-.18c2.314 2.312 4.128 5.008 5.4 8.005 1.31 3.102 1.976 6.404 1.976 9.807 0 3.395-.665 6.695-1.976 9.8" fill="#231f20"/><path d="M6.644 33.288c.29.038.54.035.746-.008.21-.044.384-.13.528-.255.144-.127.258-.296.342-.508.084-.21.145-.463.185-.762.032-.253.036-.49.01-.704-.027-.214-.09-.403-.193-.57-.1-.163-.243-.3-.425-.406-.182-.106-.615-.198-.615-.198-.042-.01-.11-.02-.15-.026l-2.233-.292c-.042-.005-.078-.043-.08-.086l-.02-.33c-.002-.04-.038-.08-.08-.086l-.1-.012c-.04-.006-.08.024-.085.066l-.196 1.503c-.006.042.023.08.065.086l.1.012c.04.005.085-.023.1-.063l.1-.308c.013-.04.06-.068.1-.063l2.5.325c.304.04.533.163.687.37.152.205.205.488.158.85-.05.372-.175.63-.38.776-.205.146-.827.14-.827.14-.042 0-.11-.005-.152-.01l-2.266-.297c-.042-.005-.08-.043-.08-.086l-.02-.328c-.002-.044-.038-.082-.08-.088l-.1-.013c-.04-.007-.08.024-.084.066l-.176 1.347c-.006.042.023.08.065.086l.098.012c.04.006.086-.022.1-.063l.103-.314c.014-.04.06-.068.1-.063zM3.95 36.783c.002.042.035.094.07.115l3.154 1.878-2.64.195c-.04.003-.084-.027-.095-.067l-.087-.313c-.01-.04-.054-.07-.096-.068l-.1.007c-.04.003-.073.04-.07.082l.1 1.296c.002.042.04.073.08.07l.1-.007c.042-.002.08-.04.085-.08l.037-.328c.003-.042.042-.08.084-.083l3.736-.284c.04-.003.074-.04.07-.082l-.028-.368c-.003-.042-.035-.094-.07-.116l-3.644-2.135 3.07-.233c.04-.004.085.027.096.068l.085.312c.01.04.053.07.095.067l.1-.007c.04-.003.073-.04.07-.082l-.098-1.296c-.004-.04-.04-.074-.083-.07l-.098.007c-.043.004-.08.04-.086.084l-.036.327c-.005.042-.043.08-.085.082l-3.36.255c-.042.003-.085-.027-.096-.068l-.086-.32c-.01-.04-.054-.07-.096-.067l-.1.007c-.04.003-.073.04-.07.083zM5.244 43.78c.04-.01.072-.053.07-.095l-.018-.323c-.002-.043.03-.086.07-.096l3.268-.816c.04-.01.09.013.107.05l.137.295c.018.038.065.06.107.05l.096-.023c.04-.012.066-.053.056-.093l-.368-1.473c-.01-.04-.052-.066-.092-.055l-.097.025c-.042.01-.073.053-.07.095l.017.322c.002.043-.03.085-.07.096l-3.268.815c-.042.01-.09-.01-.107-.05l-.137-.294c-.018-.036-.066-.06-.106-.05l-.097.026c-.04.01-.066.05-.055.09l.367 1.472c.01.04.052.066.093.055zM10.365 46.26c.03-.03.04-.085.025-.124l-.177-.417c-.017-.04-.065-.07-.107-.067l-3.967.268c-.043.004-.098-.022-.122-.055l-.146-.2c-.025-.034-.076-.048-.115-.032l-.092.04c-.038.015-.057.06-.04.1l.544 1.278c.015.04.06.058.1.04l.09-.038c.04-.015.065-.063.057-.104l-.047-.255c-.007-.042.02-.078.063-.082l3.186-.246-2.34 2.24c-.03.028-.075.022-.1-.012l-.175-.257c-.023-.035-.074-.05-.113-.034l-.092.04c-.038.016-.057.062-.04.1l.49 1.152c.017.04.062.057.1.04l.092-.04c.04-.015.064-.062.055-.103l-.062-.3c-.01-.042.01-.1.04-.13zM18.334 57.146c.096.025.195.063.298.112.103.048.187.097.25.144.23.17.372.35.428.544.056.193.016.382-.12.565-.08.11-.174.187-.28.23-.105.04-.216.06-.335.063-.118.002-.24-.008-.368-.032-.126-.023-.253-.044-.378-.063l-.517-.068c-.155-.02-.296-.023-.424-.007-.13.014-.248.053-.356.115-.108.06-.21.158-.308.29-.107.146-.17.296-.192.453-.022.156-.004.314.05.472.055.158.146.313.273.468.128.153.287.3.477.44.07.054.15.106.24.156.09.052.18.1.273.147.092.045.184.088.276.125.092.038.176.064.176.064.04.012.08.016.09.007.012-.01.037-.047.058-.082l.32-.562c.02-.037.01-.088-.025-.113l-.21-.155c-.033-.025-.088-.023-.12.004l-.392.328c-.067-.002-.148-.02-.24-.057-.094-.036-.195-.094-.305-.175-.196-.145-.318-.307-.366-.484-.05-.177-.013-.347.106-.507.076-.104.158-.175.247-.214.09-.04.183-.06.283-.06.1 0 .205.01.312.033.108.022.22.044.334.064.158.02.323.047.495.078.17.03.34.04.5.034.162-.007.315-.04.458-.1.143-.058.266-.164.37-.317.13-.197.204-.385.222-.564.018-.177-.006-.348-.072-.51-.066-.164-.17-.322-.315-.474-.145-.15-.313-.298-.506-.44-.174-.13-.356-.24-.546-.334-.19-.093-.437-.193-.437-.193-.038-.017-.078-.022-.086-.012-.01.01-.034.047-.055.083l-.324.56c-.02.037-.01.087.023.112l.21.156c.033.025.087.023.12-.004zM21.354 63.357c.02-.038.01-.09-.023-.116l-.25-.203c-.032-.027-.043-.08-.023-.115l1.594-2.97c.02-.035.07-.055.11-.042l.31.096c.04.012.09-.007.11-.044l.046-.088c.02-.037.006-.083-.03-.104l-1.337-.717c-.038-.02-.084-.006-.104.03l-.047.09c-.022.035-.01.088.022.114l.25.205c.034.026.044.078.024.115l-1.595 2.967c-.018.037-.068.057-.108.044l-.31-.095c-.04-.014-.088.007-.108.043l-.047.088c-.02.037-.006.084.03.104l1.336.718c.037.02.084.005.104-.032zM23.012 64.326c.01.025.05.056.088.07l3.117 1.134c.04.014.09.02.11.014.018-.007.048-.044.064-.084l.27-.667c.015-.038-.004-.082-.044-.096l-.25-.092c-.04-.014-.092.002-.116.038l-.22.325c-.023.035-.075.053-.115.04l-.327-.095c-.04-.012-.105-.034-.145-.048l-.316-.115 1.17-3.222c.015-.04.06-.066.102-.058l.318.05c.042.007.088-.02.102-.06l.034-.093c.015-.04-.006-.084-.045-.098l-1.426-.52c-.04-.014-.084.007-.098.047l-.034.094c-.015.04.003.09.04.11l.277.168c.035.02.053.07.04.11L24.436 64.5l-.316-.116c-.04-.014-.103-.04-.142-.057l-.312-.136c-.038-.015-.067-.063-.062-.106l.04-.39c.005-.04-.024-.087-.063-.1l-.25-.092c-.04-.015-.083.006-.096.047l-.214.66c-.013.04-.016.092-.008.116M29.633 65.72l-.32-1.773 1.175.22zm1.012-1.834l-1.392-.263-.215-1.275c-.007-.042.022-.077.064-.078l.288-.005c.042 0 .083-.035.09-.077l.02-.098c.007-.04-.02-.08-.06-.09l-1.22-.228c-.04-.007-.08.02-.09.06l-.017.1c-.008.04.017.087.056.103l.247.107c.04.015.077.062.085.103l.77 4.007c.008.04.048.08.09.09l.532.1c.042.008.092-.015.113-.052l1.982-3.485c.02-.036.072-.067.114-.068l.264-.01c.043 0 .083-.034.09-.075l.02-.1c.007-.04-.02-.08-.062-.087l-1.394-.264c-.04-.006-.082.02-.09.062l-.017.097c-.008.04.017.088.056.104l.25.106c.04.016.054.06.034.097zM34.502 63.028c.092-.036.194-.064.306-.085.112-.022.21-.033.288-.032.285.002.506.064.666.187.16.123.24.298.238.526 0 .137-.03.253-.09.348-.062.098-.14.18-.234.253-.094.072-.2.135-.316.19-.116.057-.23.114-.343.174-.168.09-.32.175-.457.25-.136.076-.252.157-.346.245-.095.088-.167.188-.218.303-.05.114-.076.252-.077.417-.002.18.036.34.11.478.077.14.183.255.32.35.14.095.304.167.498.215.194.05.41.074.645.075.088 0 .183-.005.286-.016.1-.012.203-.027.305-.044.103-.018.202-.038.297-.06.097-.025.18-.054.18-.054.04-.014.076-.036.08-.05.002-.012 0-.057-.004-.1l-.075-.64c-.004-.043-.043-.077-.085-.077l-.26-.002c-.043 0-.086.033-.096.074l-.122.496c-.056.04-.133.072-.23.098-.095.025-.21.038-.347.038-.245 0-.438-.06-.582-.174-.142-.115-.214-.272-.213-.473 0-.128.025-.234.074-.32.05-.082.113-.154.194-.213.08-.06.17-.113.27-.158.1-.046.203-.095.307-.147.142-.076.29-.152.447-.23.156-.077.297-.167.424-.268.127-.102.23-.22.312-.35.08-.132.117-.29.11-.475-.01-.236-.062-.432-.154-.586-.09-.154-.21-.277-.36-.37-.15-.094-.33-.158-.535-.195-.206-.037-.43-.056-.67-.057-.215 0-.427.017-.636.055-.208.036-.466.1-.466.1-.04.012-.075.03-.076.044-.002.012 0 .058.005.1l.07.642c.003.04.042.075.083.075h.262c.042 0 .085-.032.095-.072zM45.764 64.35c-.11.353-.355.59-.732.712-.38.123-.72.08-1.015-.133-.295-.212-.54-.615-.732-1.21-.196-.602-.238-1.078-.13-1.43.11-.35.355-.588.736-.71.38-.125.72-.08 1.015.13.296.213.54.616.733 1.21.195.602.237 1.08.126 1.43m-.378-3.026c-.458-.245-1-.266-1.624-.064-.3.098-.555.228-.763.393-.208.164-.366.358-.474.583-.108.224-.164.477-.168.758-.003.282.05.588.156.92.112.346.257.636.434.87.176.233.378.41.604.53.226.12.475.186.745.197.27.012.555-.03.852-.126.296-.096.55-.227.76-.392.208-.164.368-.36.477-.588.11-.226.167-.482.172-.766.003-.283-.05-.592-.157-.928-.22-.68-.56-1.14-1.017-1.386M47.855 60.088c.063-.076.14-.15.227-.223.088-.073.167-.128.238-.166.25-.136.474-.19.673-.158.198.03.353.147.462.347.065.12.094.235.087.35-.007.112-.035.222-.083.33-.05.11-.11.215-.186.32-.076.105-.148.21-.218.316-.104.16-.197.308-.28.44-.083.132-.146.26-.186.38-.04.124-.056.247-.045.37.01.125.055.26.133.404.086.157.195.28.328.365.133.085.282.137.45.153.165.017.345 0 .538-.05.194-.05.394-.132.602-.245.077-.042.158-.092.242-.15.084-.06.167-.123.248-.187.08-.065.158-.13.23-.197.074-.068.133-.134.133-.134.027-.03.048-.067.044-.08-.003-.013-.025-.052-.05-.087l-.374-.527c-.024-.034-.075-.046-.112-.027l-.23.126c-.036.02-.057.07-.047.11l.133.494c-.03.06-.08.127-.153.196-.072.068-.168.135-.288.2-.215.116-.412.16-.594.127-.18-.033-.32-.137-.414-.312-.062-.113-.09-.218-.09-.314.003-.098.025-.19.066-.282.043-.09.096-.18.162-.27.066-.087.133-.18.2-.275.086-.133.18-.27.28-.414.1-.144.18-.29.242-.44.062-.15.096-.303.104-.457.007-.154-.037-.31-.132-.47-.123-.2-.262-.347-.416-.44-.155-.09-.32-.14-.496-.15-.176-.01-.363.02-.562.086-.198.066-.402.157-.613.27-.19.105-.368.222-.533.355-.165.134-.36.314-.36.314-.03.03-.052.063-.047.076.005.012.028.05.052.085l.37.53c.024.034.074.046.11.026l.23-.125c.038-.02.06-.068.05-.11zM52.23 57.327c-.026-.033-.02-.08.014-.108l.518-.407c.033-.026.088-.067.123-.09l.275-.19c.035-.023.09-.02.123.005l.337.272c.032.027.086.027.12 0l.21-.165c.033-.025.038-.072.01-.105l-.447-.53c-.027-.033-.06-.07-.076-.084-.015-.014-.054-.004-.088.022l-2.243 1.757c-.033.027-.04.075-.012.108l.06.078c.027.034.08.046.116.026l.29-.148c.036-.02.09-.008.114.025l2.08 2.65c.024.034.023.088-.004.12l-.213.244c-.027.03-.03.085-.003.118l.06.077c.027.033.075.04.108.014l1.19-.932c.032-.026.038-.074.012-.107l-.062-.078c-.026-.034-.077-.046-.115-.026l-.288.147c-.038.02-.09.01-.116-.024zM59.072 55.02c.084.36-.005.687-.268.984-.264.3-.577.435-.94.404-.362-.032-.777-.255-1.246-.668-.475-.42-.754-.807-.84-1.164-.085-.358.005-.687.27-.988.264-.3.578-.434.94-.403.363.032.778.254 1.247.667.475.42.754.808.837 1.168m-1.867-2.412c-.52.022-.996.28-1.43.773-.21.238-.36.48-.456.727-.096.247-.133.494-.112.742.022.247.102.494.242.737.14.244.342.482.603.712.273.24.546.417.816.527.27.11.534.16.79.148.256-.01.503-.082.742-.21.24-.128.46-.31.667-.544.206-.233.357-.474.454-.722.096-.25.133-.5.112-.75-.02-.25-.102-.5-.243-.747-.14-.245-.343-.484-.607-.718-.535-.47-1.06-.696-1.58-.674M60.794 49.966c.032.027.04.078.02.115l-.457.777-1.5-.905.49-.826c.02-.036.058-.094.082-.13l.187-.275c.023-.034.076-.05.115-.04l.41.137c.04.013.09-.006.112-.042l.14-.235c.02-.036.008-.082-.03-.102l-.608-.334c-.037-.02-.083-.043-.102-.05-.018-.007-.05.017-.072.052l-1.578 2.656c-.02.036-.01.084.027.105l.086.05c.036.023.09.015.117-.017l.215-.242c.028-.032.08-.04.116-.018l2.896 1.72c.036.022.054.07.04.11l-.11.305c-.014.04.004.09.04.11l.085.052c.037.02.084.01.105-.026l1.504-2.53c.022-.037.038-.085.035-.11-.003-.02-.033-.058-.07-.08l-.604-.388c-.035-.023-.082-.012-.103.025l-.137.23c-.02.036-.014.09.017.117l.327.31c.03.03.04.083.02.12l-.154.303c-.02.038-.053.098-.075.134l-.44.75-1.328-.792.458-.772c.02-.036.07-.054.11-.04l.302.116c.04.014.09-.004.11-.04l.116-.194c.02-.037.01-.083-.026-.105l-.98-.58c-.036-.023-.083-.01-.105.025l-.114.194c-.022.036-.013.09.02.115zM11.164 51.76c-.038.017-.09 0-.112-.034l-.495-.75 1.475-.95.524.806c.023.035.06.094.08.13l.164.29c.022.038.014.093-.015.122l-.303.31c-.03.028-.034.082-.012.117l.15.23c.023.035.07.044.104.02l.57-.4c.033-.024.073-.055.088-.068.015-.014.008-.054-.015-.09l-1.687-2.588c-.023-.034-.07-.044-.105-.02l-.084.053c-.034.023-.05.073-.034.112l.123.3c.014.038 0 .09-.037.112l-2.82 1.84c-.037.022-.09.016-.118-.014l-.225-.233c-.03-.03-.083-.036-.118-.013l-.083.055c-.036.023-.046.07-.023.106l1.608 2.466c.023.034.06.07.08.078.02.008.067-.004.103-.025l.616-.372c.036-.02.046-.067.023-.103l-.145-.224c-.023-.035-.075-.05-.114-.037l-.422.157c-.04.015-.092 0-.117-.035l-.204-.272c-.025-.034-.065-.09-.088-.126l-.477-.727 1.298-.842.49.753c.024.034.017.087-.013.115l-.236.222c-.03.03-.038.082-.015.116l.123.19c.023.034.07.045.106.02l.954-.62c.036-.023.046-.07.023-.106l-.122-.19c-.024-.034-.074-.05-.112-.032zM64.832 46.656c.014-.04.005-.1-.02-.134l-2.15-2.978 2.5.872c.04.013.07.06.063.1l-.047.32c-.006.043.022.088.062.102l.094.032c.04.014.084-.008.097-.048l.426-1.227c.014-.04-.008-.084-.047-.098l-.095-.032c-.04-.014-.09.004-.11.04l-.165.288c-.02.035-.07.055-.11.04l-3.54-1.225c-.04-.013-.085.008-.1.048l-.12.35c-.013.04-.004.1.02.134l2.496 3.41-2.91-1.01c-.04-.013-.067-.058-.062-.1l.046-.32c.007-.043-.02-.087-.06-.1l-.095-.033c-.04-.015-.084.007-.097.047l-.425 1.23c-.014.038.007.082.047.096l.094.03c.04.016.09-.003.11-.04l.164-.285c.02-.037.07-.055.11-.042l3.184 1.102c.04.013.067.058.06.1l-.047.326c-.006.042.022.088.062.102l.094.033c.04.013.084-.008.098-.048zM62.62 40.214c-.02-.095-.036-.2-.04-.315-.007-.114-.004-.212.007-.29.04-.28.132-.492.276-.633.144-.143.33-.196.555-.164.135.02.245.066.332.14.087.073.16.16.217.264.058.103.106.217.145.34.04.122.08.243.124.363.067.18.13.342.185.487.057.146.122.27.196.378.074.105.164.19.27.257.105.064.24.11.402.133.178.025.34.01.49-.045.147-.055.277-.145.39-.268.113-.123.207-.277.28-.463.077-.186.132-.396.165-.63.013-.087.02-.182.023-.284.003-.102.003-.205 0-.31-.004-.103-.01-.204-.02-.302-.01-.1-.03-.187-.03-.187-.006-.04-.023-.08-.035-.084-.012-.005-.057-.01-.1-.01l-.645-.015c-.042 0-.08.032-.088.074l-.036.258c-.005.042.02.088.06.105l.475.19c.032.06.054.14.066.238.013.1.01.216-.01.35-.035.243-.12.427-.252.553-.134.127-.3.175-.498.146-.127-.018-.23-.056-.306-.116-.076-.06-.138-.134-.186-.22-.048-.088-.088-.186-.12-.29-.03-.106-.065-.215-.1-.325-.056-.15-.112-.307-.167-.47-.054-.167-.123-.32-.206-.46-.084-.138-.185-.257-.304-.355-.12-.098-.27-.157-.455-.175-.235-.022-.436 0-.602.07-.165.07-.304.173-.417.308-.113.135-.202.303-.266.502-.066.198-.115.417-.15.654-.03.214-.042.426-.034.638.008.212.037.476.037.476.004.042.02.08.032.083.012.005.057.008.1.01l.644.02c.04 0 .08-.033.086-.074l.038-.26c.006-.04-.02-.088-.06-.104zM66.665 34.54c-.043 0-.084.033-.09.075l-.065.318c-.008.04-.05.075-.09.075l-3.37-.015c-.04 0-.082-.034-.09-.075l-.06-.32c-.007-.04-.048-.075-.09-.075h-.1c-.042 0-.076.034-.076.076l-.007 1.515c0 .042.035.077.077.077h.098c.043 0 .084-.033.092-.074l.063-.32c.008-.04.05-.074.09-.073l3.37.014c.042 0 .082.033.09.075l.06.318c.007.042.048.076.09.076h.1c.042 0 .076-.035.076-.077l.007-1.516c0-.042-.034-.076-.076-.076zM62.81 31.975c-.05-.085-.093-.18-.133-.29-.038-.106-.064-.2-.077-.28-.044-.28-.017-.508.078-.685.096-.177.256-.283.482-.32.135-.02.254-.01.36.037.103.043.198.107.283.188.086.082.166.175.24.28.073.108.148.21.224.313.118.15.224.288.32.412.097.122.196.222.298.302.1.08.212.135.333.167.12.03.262.034.424.008.18-.027.33-.09.454-.186.125-.097.224-.22.295-.372.072-.15.117-.326.134-.525.018-.2.008-.416-.03-.648-.012-.087-.033-.18-.06-.28-.028-.1-.06-.198-.092-.295-.034-.1-.07-.192-.11-.284-.037-.09-.08-.17-.08-.17-.02-.036-.046-.067-.06-.07-.013 0-.058.008-.098.02l-.622.176c-.04.012-.067.055-.06.096l.04.26c.006.04.045.076.088.08l.51.04c.047.05.09.12.132.21.04.092.07.205.093.34.038.24.01.44-.08.6-.09.16-.234.257-.433.288-.126.02-.234.012-.325-.022-.09-.034-.172-.086-.243-.156-.072-.07-.138-.15-.2-.242-.06-.09-.125-.185-.193-.28-.095-.127-.195-.26-.296-.403-.102-.143-.212-.268-.332-.377-.12-.108-.252-.19-.396-.25-.143-.06-.305-.07-.485-.033-.23.05-.416.13-.554.244-.138.115-.24.254-.31.416-.067.162-.102.348-.106.557-.004.21.013.433.05.67.034.214.086.42.155.62.07.2.175.444.175.444.017.04.04.07.055.07.013 0 .058-.01.098-.02l.622-.173c.04-.01.07-.053.062-.096l-.04-.258c-.007-.042-.046-.078-.09-.082zM17.356 10.284c.038-.017.09-.004.112.032l1.734 2.49-3.23-1.828c-.035-.02-.092-.015-.125.01l-.13.106c-.03.026-.05.082-.04.122l.936 3.487-1.96-2.135c-.03-.03-.035-.082-.01-.116l.196-.267c.025-.034.02-.087-.008-.118l-.066-.072c-.03-.03-.078-.033-.11-.003l-.954.89c-.03.03-.033.077-.005.108l.068.073c.03.03.082.037.117.015l.276-.174c.036-.022.09-.016.118.014l2.218 2.46c.028.03.028.083 0 .115l-.21.25c-.026.032-.026.085 0 .118l.062.078c.027.032.075.037.108.01l1-.812c.032-.027.05-.082.04-.122l-.795-3.07 2.735 1.49c.037.022.094.016.126-.01l.96-.78c.032-.026.037-.073.01-.106l-.062-.077c-.027-.03-.08-.042-.116-.023l-.287.155c-.037.02-.088.01-.113-.024l-1.89-2.688c-.024-.034-.02-.087.01-.12l.22-.238c.03-.03.033-.083.008-.118l-.06-.08c-.024-.033-.07-.04-.105-.015l-1.23.9c-.033.024-.04.072-.016.106l.058.08c.024.034.076.047.114.03zM25.273 8.726c.04.232.036.442-.016.63-.053.188-.152.357-.297.505-.146.15-.507.366-.507.366-.036.023-.096.055-.134.073l-.383.198-1.623-3.176.364-.188c.175-.09.345-.163.51-.217.163-.054.32-.08.47-.076.242.02.477.116.71.285.23.17.44.443.634.82.14.288.23.55.27.78M24.59 10.5c.297-.152.556-.323.778-.513.22-.19.388-.402.5-.636.113-.234.163-.495.15-.782-.014-.287-.11-.602-.286-.948-.165-.324-.36-.582-.58-.773-.224-.192-.465-.32-.726-.384-.26-.064-.538-.07-.832-.02-.294.053-.838.287-.838.287-.04.017-.1.046-.14.065l-1.457.746c-.037.02-.052.067-.033.104l.045.088c.018.037.067.06.107.047l.313-.093c.04-.012.09.01.108.047l1.53 2.99c.02.038.007.09-.026.117l-.257.2c-.034.026-.045.078-.026.115l.044.09c.02.036.066.052.103.032zM31.772 7.542c-.01.14-.005.166-.01.266-.005.123-.044.168-.168.248-.048.03-.102.056-.16.08-.09.042-.192.073-.307.093-.21.036-.406.035-.59-.007-.183-.04-.348-.124-.495-.25-.147-.12-.272-.286-.378-.492-.105-.207-.183-.454-.235-.74-.112-.61-.068-1.085.13-1.424.197-.342.54-.557 1.026-.644.142-.027.296-.036.463-.03.142.005.305.025.492.05.098.01.107-.06.107-.06l.01-.077s.01-.09-.065-.116c-.164-.063-.35-.107-.562-.135-.243-.034-.508-.024-.797.028-.277.05-.53.134-.757.253-.23.12-.416.277-.564.475-.15.197-.25.437-.305.72-.054.282-.047.61.02.99.07.38.186.7.35.953.162.254.36.454.59.597.23.143.487.233.774.27.287.037.59.027.91-.03.218-.042.418-.098.6-.174.127-.053.247-.107.36-.162.155-.077.114-.21.114-.21l-.167-.55s-.038-.12-.145-.103l-.152.028s-.082.012-.09.153M38.173 7.398c-.042.135-.044.16-.072.256-.034.116-.083.153-.22.2-.055.018-.114.03-.175.042-.098.02-.205.024-.32.017-.214-.012-.405-.06-.572-.146-.17-.084-.31-.203-.423-.357-.114-.155-.197-.345-.25-.57-.053-.226-.07-.484-.054-.775.037-.618.192-1.07.464-1.355.273-.283.656-.41 1.15-.38.144.008.297.034.457.08.137.04.29.097.468.165.09.034.118-.033.118-.033l.027-.072s.03-.083-.034-.128c-.145-.1-.316-.187-.514-.264-.228-.09-.49-.143-.782-.16-.28-.018-.546.004-.795.066-.25.062-.47.17-.66.327-.19.158-.345.367-.466.627-.12.263-.193.584-.216.967-.022.387.015.723.113 1.01.097.285.242.525.43.718.19.194.42.342.69.446.27.105.568.167.893.186.22.014.428.004.623-.026.136-.02.265-.045.387-.07.17-.04.16-.178.16-.178l-.03-.575s-.01-.128-.118-.134l-.154-.008s-.082-.01-.125.126M44.416 8.716c-.07.123-.077.147-.124.234-.06.11-.115.132-.26.15-.056.008-.116.007-.178.005-.1-.002-.206-.02-.318-.05-.205-.057-.38-.145-.528-.263-.146-.117-.26-.262-.338-.438-.08-.175-.12-.38-.125-.61-.004-.23.032-.488.11-.77.166-.595.412-1.005.738-1.225.326-.222.727-.265 1.204-.133.14.038.282.097.43.174.126.07.265.158.423.26.082.054.122-.007.122-.007l.042-.064s.047-.076-.006-.134c-.12-.127-.27-.248-.448-.364-.204-.138-.448-.245-.73-.323-.272-.076-.535-.11-.792-.1-.257.006-.495.066-.714.18-.22.113-.414.285-.587.514-.173.23-.31.53-.412.9-.104.373-.138.71-.102 1.01.035.3.126.565.27.793.146.23.34.424.58.583.243.156.52.28.835.367.212.06.417.094.614.105.138.008.27.012.394.01.174 0 .194-.136.194-.136l.09-.57s.017-.127-.087-.157c-.093-.027-.148-.04-.148-.04s-.08-.026-.15.096M49.612 9.735l-1.854.84c-.038.018-.103.022-.143.01l-.278-.086c-.04-.014-.09.006-.112.042l-.048.087c-.02.036-.008.082.028.104l1.335.758c.036.022.083.008.104-.027l.05-.087c.02-.037.01-.09-.02-.118l-.165-.152c-.032-.03-.026-.067.012-.084l1.32-.63.164 1.476c.004.042-.025.066-.065.054l-.23-.073c-.04-.012-.09.007-.11.044l-.05.086c-.02.037-.007.084.03.104l1.056.602c.036.02.083.008.104-.028l.05-.086c.02-.037.01-.09-.02-.118l-.242-.212c-.032-.027-.06-.084-.065-.126l-.205-1.876 2.054-.956c.038-.017.102-.02.143-.01l.283.09c.04.012.09-.008.11-.044l.05-.086c.02-.036.007-.083-.03-.104l-1.338-.763c-.037-.02-.084-.01-.104.03l-.05.084c-.02.038-.012.09.02.12l.18.16c.03.03.026.067-.012.085l-1.543.74-.187-1.727c-.005-.042.025-.065.065-.053l.22.066c.04.014.09-.006.11-.042l.05-.086c.02-.037.008-.082-.028-.104l-1.062-.605c-.037-.02-.084-.008-.105.028l-.048.087c-.02.037-.012.09.02.117l.24.213c.032.028.062.084.067.125zM54.207 15.373c.028-.033.03-.085.004-.118l-.2-.258c-.024-.033-.022-.087.005-.118l2.222-2.52c.028-.032.08-.04.117-.02l.28.167c.036.022.09.014.116-.02l.066-.072c.028-.032.025-.08-.007-.108L55.666 11.3c-.032-.028-.08-.026-.11.006l-.064.073c-.027.03-.03.085-.003.117l.2.258c.025.033.023.086-.005.118l-2.22 2.52c-.03.03-.082.04-.118.018l-.28-.165c-.037-.02-.09-.013-.117.02l-.066.072c-.027.033-.024.08.007.108l1.144 1.008c.03.03.08.025.108-.007z" fill="#040606"/><path d="M13.723 55.277l-.05-.05-1.214 1.147.217.225.107.11s.133.128.226.197c.093.068.188.113.285.134.097.02.197.015.3-.02.103-.033.21-.104.32-.208.24-.23.355-.453.342-.67-.013-.217-.29-.594-.29-.594-.024-.034-.068-.087-.097-.117zm2.592-.426c.042-.007.1.012.128.043l.636.667c.027.03.026.08-.004.108l-.072.068c-.03.03-.084.033-.118.01l-.242-.168c-.035-.024-.097-.038-.14-.032l-1.895.31c-.043.005-.062.042-.044.08 0 0 .232.5.223.76-.01.26-.127.498-.35.71-.16.152-.32.24-.483.265-.162.025-.32.01-.474-.05-.155-.056-.303-.142-.447-.258-.143-.115-.345-.315-.345-.315l-.107-.11-1.115-1.17c-.03-.032-.028-.08.002-.11l.072-.068c.03-.03.084-.034.118-.01l.268.193c.034.025.087.02.117-.008l2.44-2.322c.03-.03.037-.082.015-.117l-.18-.277c-.023-.036-.016-.09.014-.118l.072-.07c.03-.028.08-.026.11.004l1.044 1.098c.03.03.027.08-.003.108l-.072.07c-.03.028-.083.032-.118.007l-.263-.19c-.035-.023-.087-.02-.118.01l-1.124 1.07.166.174c.03.03.087.05.13.04z" fill="#231f20"/></g></svg>