<?xml version="1.0" standalone="no"?>
<!DOCTYPE svg PUBLIC "-//W3C//DTD SVG 20010904//EN"
 "http://www.w3.org/TR/2001/REC-SVG-20010904/DTD/svg10.dtd">
<svg version="1.0" xmlns="http://www.w3.org/2000/svg"
 width="878.000000pt" height="878.000000pt" viewBox="0 0 878.000000 878.000000"
 preserveAspectRatio="xMidYMid meet">

<g transform="translate(0.000000,878.000000) scale(0.100000,-0.100000)"
fill="#000000" stroke="none">
<path d="M3540 7885 l0 -735 -799 0 c-819 0 -968 -5 -1171 -40 -447 -78 -872
-295 -1150 -586 -243 -256 -380 -544 -410 -864 -8 -79 -10 -726 -8 -2090 l4
-1975 21 -95 c92 -408 334 -740 723 -993 295 -192 659 -313 1040 -346 60 -5
1308 -9 2900 -10 2412 -1 2811 1 2910 14 139 18 162 24 153 39 -4 6 1 5 10 -3
12 -9 17 -10 17 -2 0 7 5 9 10 6 20 -13 243 72 233 88 -3 6 -1 7 6 3 12 -8 82
24 121 55 14 12 19 17 11 13 -9 -5 -12 -3 -7 5 4 6 12 9 17 6 10 -7 73 34 65
43 -3 2 -14 -1 -23 -9 -16 -13 -17 -12 -4 4 8 9 21 15 30 13 17 -6 61 25 61
43 0 6 6 11 13 11 20 0 99 78 92 90 -3 5 0 7 7 5 8 -3 28 14 48 41 19 26 54
72 77 103 23 31 42 60 42 64 1 5 13 25 29 45 15 20 21 32 13 28 -7 -5 -4 5 9
22 14 18 19 35 15 44 -5 7 -4 10 0 5 11 -9 37 51 28 66 -3 6 -1 7 5 3 12 -7
35 61 25 77 -3 6 -1 7 5 3 7 -4 12 -6 12 -4 0 2 9 50 21 108 27 135 33 220 16
220 -6 0 -4 5 6 11 16 9 17 97 17 1609 0 1269 -3 1599 -12 1603 -10 4 -10 6 0
6 9 1 12 407 12 1996 l0 1995 -2620 0 -2620 0 0 -735z m1145 -2009 c327 -53
603 -153 890 -325 61 -36 115 -64 120 -62 6 1 7 -1 2 -5 -9 -9 95 -84 107 -77
5 4 6 1 3 -4 -4 -6 6 -19 21 -29 15 -10 43 -32 62 -51 21 -20 41 -31 52 -27 9
2 19 0 23 -5 4 -7 -1 -8 -12 -4 -17 6 -17 5 1 -15 10 -12 24 -19 30 -15 6 3 8
2 3 -2 -9 -11 73 -96 85 -89 5 3 7 1 6 -4 -2 -6 19 -35 45 -66 27 -31 64 -78
84 -104 20 -26 40 -48 45 -50 4 -2 8 -8 8 -14 0 -16 51 -78 62 -75 6 1 13 -5
15 -13 4 -13 3 -13 -6 0 -6 8 -11 11 -11 6 0 -5 11 -24 25 -42 14 -18 25 -38
25 -44 0 -6 5 -8 10 -5 6 4 10 3 9 -2 -3 -20 3 -34 24 -54 12 -12 15 -19 7
-15 -8 4 -6 0 4 -8 11 -9 16 -16 11 -16 -4 0 0 -9 10 -20 10 -11 15 -20 11
-20 -3 0 0 -13 9 -30 9 -16 20 -30 26 -30 6 0 9 -7 5 -15 -3 -8 1 -21 9 -29 8
-7 11 -16 8 -19 -3 -4 1 -17 9 -29 8 -13 25 -50 37 -82 12 -33 25 -64 29 -70
3 -6 8 -22 10 -36 2 -13 7 -27 11 -30 4 -3 8 -12 8 -20 0 -8 11 -49 24 -90 13
-41 23 -81 22 -87 0 -7 2 -13 6 -13 3 0 7 -10 8 -22 0 -13 4 -39 7 -58 3 -19
8 -48 10 -65 17 -101 21 -186 21 -395 0 -209 -4 -294 -21 -395 -2 -16 -7 -46
-10 -65 -3 -19 -6 -45 -6 -57 0 -13 -4 -23 -10 -23 -5 0 -6 -4 -3 -10 3 -5 1
-18 -4 -28 -6 -11 -12 -30 -15 -43 -2 -13 -11 -43 -19 -66 -9 -22 -13 -44 -9
-48 4 -3 1 -9 -5 -13 -6 -4 -13 -19 -15 -32 -2 -14 -7 -30 -10 -36 -4 -6 -17
-37 -29 -70 -12 -32 -29 -69 -37 -82 -8 -12 -12 -25 -9 -29 3 -3 0 -12 -8 -19
-8 -8 -12 -21 -9 -29 4 -8 1 -15 -5 -15 -6 0 -17 -14 -26 -30 -9 -17 -12 -30
-9 -30 4 0 0 -8 -9 -18 -10 -10 -14 -22 -10 -25 3 -4 1 -7 -5 -7 -13 0 -54
-74 -47 -84 3 -3 2 -4 -1 -1 -7 4 -64 -79 -64 -93 0 -4 5 0 11 8 9 13 10 13 6
0 -2 -8 -9 -15 -16 -15 -7 0 -21 -11 -31 -25 -18 -23 -18 -26 -2 -45 14 -16
14 -17 1 -7 -20 15 -33 5 -82 -60 -20 -26 -57 -73 -84 -104 -26 -31 -47 -61
-45 -68 2 -6 0 -8 -4 -3 -10 10 -95 -74 -87 -86 3 -6 1 -7 -4 -4 -6 4 -19 -3
-29 -15 -18 -20 -18 -21 -1 -15 11 4 16 3 12 -4 -4 -5 -14 -7 -23 -5 -11 4
-31 -7 -52 -27 -19 -19 -47 -41 -62 -51 -15 -10 -25 -23 -21 -29 3 -5 2 -8 -3
-4 -12 7 -116 -68 -107 -77 5 -4 4 -6 -2 -5 -5 2 -62 -28 -125 -65 -316 -189
-638 -297 -1008 -336 -140 -16 -467 -8 -602 14 -980 157 -1753 873 -1979 1831
-45 190 -56 292 -56 540 0 150 5 274 13 330 105 704 482 1297 1072 1688 285
188 657 327 985 366 50 6 101 13 115 15 60 10 480 -3 575 -18z m1075 -400 c0
-2 -8 -10 -17 -17 -16 -13 -17 -12 -4 4 13 16 21 21 21 13z m160 -130 c0 -11
-19 -15 -25 -6 -3 5 1 10 9 10 9 0 16 -2 16 -4z m145 -155 c-3 -3 -18 8 -33
23 l-27 29 32 -23 c18 -13 30 -26 28 -29z m89 -39 c3 -5 -1 -9 -9 -9 -8 0 -15
4 -15 9 0 4 4 8 9 8 6 0 12 -4 15 -8z m-34 -23 c0 -6 -4 -7 -10 -4 -5 3 -10
11 -10 16 0 6 5 7 10 4 6 -3 10 -11 10 -16z m53 -50 l19 -34 -26 24 c-14 13
-23 27 -21 32 3 4 0 10 -5 12 -6 3 -5 4 2 3 7 -1 21 -18 31 -37z m40 -53 c4
-10 1 -13 -8 -9 -8 3 -12 9 -9 14 7 12 11 11 17 -5z m87 -90 c0 -2 -8 -10 -17
-17 -16 -13 -17 -12 -4 4 13 16 21 21 21 13z m17 -29 c0 -8 -6 -14 -14 -14 -9
0 -10 4 -2 14 6 7 12 13 14 13 1 0 2 -6 2 -13z m73 -68 c-9 -15 -8 -24 1 -35
7 -8 7 -14 1 -14 -16 0 -23 30 -12 51 6 10 13 19 16 19 2 0 0 -9 -6 -21z m160
-339 c0 -5 -4 -10 -10 -10 -5 0 -10 5 -10 10 0 6 5 10 10 10 6 0 10 -4 10 -10z
m48 -140 c-7 -10 -14 -18 -15 -16 -6 6 9 36 18 36 5 0 4 -9 -3 -20z m69 -242
c-3 -8 -6 -5 -6 6 -1 11 2 17 5 13 3 -3 4 -12 1 -19z m0 -1250 c-3 -8 -6 -5
-6 6 -1 11 2 17 5 13 3 -3 4 -12 1 -19z m20 0 c-3 -8 -6 -5 -6 6 -1 11 2 17 5
13 3 -3 4 -12 1 -19z m-83 -248 c-6 -5 -24 21 -24 34 0 6 6 1 14 -10 8 -10 12
-21 10 -24z m-54 -120 c0 -5 -4 -10 -10 -10 -5 0 -10 5 -10 10 0 6 5 10 10 10
6 0 10 -4 10 -10z m-159 -304 c-9 -11 -10 -20 -1 -35 6 -12 8 -21 6 -21 -3 0
-10 9 -16 19 -11 21 -4 51 12 51 6 0 6 -6 -1 -14z m-74 -103 c0 -9 -4 -10 -14
-2 -7 6 -13 12 -13 14 0 1 6 2 13 2 8 0 14 -6 14 -14z m-107 -118 c-7 -9 -15
-13 -19 -10 -3 3 1 10 9 15 21 14 24 12 10 -5z m-50 -80 c-7 -8 -18 -15 -24
-15 -6 0 -4 5 4 10 8 5 11 10 6 10 -5 0 -2 7 5 16 9 11 15 12 17 5 2 -7 -2
-18 -8 -26z m-48 -37 c-7 -7 -12 -8 -12 -2 0 14 12 26 19 19 2 -3 -1 -11 -7
-17z m42 -10 c-3 -4 -9 -8 -15 -8 -5 0 -9 4 -9 8 0 5 7 9 15 9 8 0 12 -4 9 -9z
m-119 -66 l-28 -27 24 31 c13 17 26 30 28 27 3 -2 -8 -16 -24 -31z m35 -6 c0
-2 -8 -10 -17 -17 -16 -13 -17 -12 -4 4 13 16 21 21 21 13z m-160 -116 c0 -5
-5 -10 -11 -10 -5 0 -7 5 -4 10 3 6 8 10 11 10 2 0 4 -4 4 -10z m-159 -127
c13 -16 12 -17 -3 -4 -10 7 -18 15 -18 17 0 8 8 3 21 -13z m2918 -465 c0 -27
-2 -29 -8 -13 -5 11 -6 26 -4 33 8 21 13 13 12 -20z m-7 -78 c-6 -41 -12 -38
-12 6 0 19 4 33 8 30 5 -3 7 -19 4 -36z m-62 -80 c0 -5 -5 -10 -11 -10 -5 0
-7 5 -4 10 3 6 8 10 11 10 2 0 4 -4 4 -10z m-42 -150 c-7 -11 -17 -20 -22 -20
-5 0 -1 9 9 20 10 11 20 20 22 20 2 0 -2 -9 -9 -20z m-45 -67 c-4 -10 -9 -11
-19 -2 -18 15 -18 15 5 15 11 0 17 -5 14 -13z m-78 -85 c4 -3 2 -9 -3 -12 -5
-3 -15 1 -21 8 -10 11 -9 14 3 12 9 -1 18 -5 21 -8z m-78 -75 c-9 -2 -15 -8
-12 -13 3 -5 1 -11 -4 -14 -7 -5 -8 11 -2 32 1 1 9 1 19 1 16 -1 16 -2 -1 -6z
m-263 -175 c-5 -7 -1 -9 9 -5 23 9 22 0 -1 -12 -15 -8 -18 -6 -18 14 0 13 4
21 8 19 5 -3 5 -10 2 -16z m-521 -155 c-7 -2 -19 -2 -25 0 -7 3 -2 5 12 5 14
0 19 -2 13 -5z"/>
<path d="M4194 4450 c-318 -40 -605 -253 -744 -554 -61 -131 -84 -238 -84
-396 0 -108 5 -153 23 -225 82 -323 325 -586 631 -683 119 -38 174 -46 300
-45 202 1 351 45 519 153 223 145 371 367 422 632 25 133 13 322 -30 456 -47
142 -134 287 -236 388 -120 121 -310 224 -475 259 -91 19 -238 26 -326 15z"/>
</g>
</svg>
